<svg xmlns="http://www.w3.org/2000/svg" viewBox="0 0 512 512" fill="currentColor"><path fill="transparent" d="M373 164.2h29.3v224.2H57.5v2.8c0-46.8 34.6-84.8 77.3-84.8h120.7c21.2 0 47.5-41.4 47.5-64.7v-.8c.1-42.4 31.4-76.7 70-76.7z"/><path d="M443.1 108.1c-4.4 0-8-3.6-8-8s3.6-8 8-8c5.7 0 10.4-4.7 10.4-10.4s-4.7-10.4-10.4-10.4c-4.4 0-8-3.6-8-8s3.6-8 8-8c14.6 0 26.4 11.8 26.4 26.4s-11.9 26.4-26.4 26.4zm-18.7 305.6c0-4.4-3.6-8-8-8h-55c-4.4 0-8 3.6-8 8s3.6 8 8 8h55c4.4 0 8-3.6 8-8zm53.3 33.6c0-4.4-3.6-8-8-8h-92.9c-4.4 0-8 3.6-8 8s3.6 8 8 8h92.9c4.5 0 8-3.6 8-8zM97.4 430.7c0-4.4-3.6-8-8-8h-55c-4.4 0-8 3.6-8 8s3.6 8 8 8h55c4.4 0 8-3.6 8-8zm53.3 33.6c0-4.4-3.6-8-8-8H49.8c-4.4 0-8 3.6-8 8s3.6 8 8 8h92.9c4.5 0 8-3.6 8-8zM451.1 203.5h-41.2v-41.2c0-4.4-3.6-8-8-8H57.5c-4.4 0-8 3.6-8 8v221.4c0 4.4 3.6 8 8 8h344.4c4.4 0 8-3.6 8-8v-41.2h41.2c4.4 0 8-3.6 8-8v-123c0-4.4-3.5-8-8-8zm-57.2 8v164.2H65.5V170.3h328.4v41.2zm49.2 115h-33.2v-107h33.2v107zM185.7 289c-1.4-2.7-1.1-5.9.6-8.3l61.5-86.1c0-.1.1-.1.1-.2.1-.1.2-.3.3-.4l.3-.3.3-.3.3-.3c.1-.1.2-.1.2-.2.1-.1.3-.2.4-.3.1 0 .1-.1.2-.1.1-.1.3-.2.4-.3.1 0 .2-.1.2-.1.1-.1.3-.1.4-.2.1 0 .2-.1.3-.1.1-.1.3-.1.4-.2.1 0 .2-.1.3-.1.1 0 .3-.1.4-.1.1 0 .2-.1.4-.1.1 0 .3 0 .4-.1h2c.2 0 .4 0 .5.1H255.9c.2 0 .4.1.5.1.1 0 .2 0 .2.1.2 0 .3.1.4.2.1 0 .2.1.3.1.1 0 .2.1.3.2.1.1.3.1.4.2.1 0 .1.1.2.1.2.1.3.2.5.3h.1c.1 0 .1.1.2.1.1.1.3.2.4.3.1.1.2.2.3.2l.3.3.3.3c.1.1.1.2.2.3.1.1.2.2.3.4.1.1.1.2.2.2.1.1.2.3.2.4.1.1.1.2.2.3.1.1.1.3.2.4 0 .1.1.2.1.3 0 .1.1.2.1.4 0 .1.1.3.1.4 0 .1.1.2.1.3 0 .1.1.3.1.4v.3c0 .2 0 .3.1.5V199.8c0 .2 0 .3-.1.5v.2l-10 50.1c-.8 3.8-4.1 6.4-7.8 6.4-.5 0-1-.1-1.6-.2-4.3-.9-7.1-5.1-6.3-9.4l2.7-13.6-30.8 43.1h21.4c2.5 0 4.8 1.1 6.3 3.1 1.5 1.9 2.1 4.5 1.5 6.9l-3.8 15.3 28.2-33.8h-1.1c-4.4 0-8-3.6-8-8s3.6-8 8-8h18.1c3.1 0 5.9 1.8 7.2 4.6 1.3 2.8.9 6.1-1.1 8.5l-61.5 73.8c-1.6 1.9-3.8 2.9-6.1 2.9-1.2 0-2.5-.3-3.6-.9-3.3-1.7-5-5.5-4.1-9.1l9.8-39.3h-26.7c-3 .4-5.7-1.3-7.1-3.9z"/></svg>