<svg xmlns="http://www.w3.org/2000/svg" viewBox="0 0 512 512"><path fill="transparent" d="M486 306.2c-16.9-16.9-133.9-133.9-134-134.1v54.7c0 3 3.9 4 5.4 1.4 2.6-4.5 7.3-6.9 12-6.9 3.4 0 6.8 1.2 9.5 3.9l74.9 72.3c3.1 3 3.1 7.9.1 10.9L344.3 420.8l-.1.1c-5.5 5.5-5.4 14.5.1 20l7 7L486 310.3c1.1-1.1 1.1-2.9 0-4.1zM30.1 193.6C47 210.5 164 327.5 164.1 327.7V273c0-3-3.9-4-5.4-1.4-2.6 4.5-7.3 6.9-12 6.9-3.4 0-6.8-1.2-9.5-3.9l-74.9-72.3c-3.1-3-3.1-7.9-.1-10.9L171.9 79.1l.1-.1c5.5-5.5 5.4-14.5-.1-20l-7-7L30.1 189.5c-1.1 1.1-1.1 3 0 4.1zm225.3 166.9h.3l-29 88.7h-33.6c-15.6 0-31.7-3.2-26.8-18.1l19.1-55.3c3-9.1 11.5-15.3 21.1-15.3 9.1 0 17.1-5.8 19.9-14.5l81-250.6c6.1-18.9 23.8-31.8 43.6-31.8h.2l-95.8 296.9z"/><path d="M488.6 322.2L362.8 448c-1.6 1.6-3.6 2.3-5.7 2.3-2 0-4.1-.8-5.7-2.3-3.1-3.1-3.1-8.2 0-11.3l125.8-125.8c1-.9 1.1-2.1 1.1-2.6 0-.6-.1-1.7-1.1-2.6l-124-124v45.5c0 4.4-3.6 8-8 8s-8-3.6-8-8v-64.8c0-3.2 1.9-6.2 4.9-7.4 3-1.2 6.4-.6 8.7 1.7l137.6 137.6c7.9 7.7 7.9 20.2.2 27.9zm-97-13.9c0 1.3-.5 2.6-1.5 3.5l-38.3 38.3c-3.1 3.1-3.1 8.2 0 11.3 1.6 1.6 3.6 2.3 5.7 2.3 2 0 4.1-.8 5.7-2.3l38.3-38.3c8.2-8.2 8.2-21.5 0-29.6l-42.9-42.9c-3.1-3.1-8.2-3.1-11.3 0-3.1 3.1-3.1 8.2 0 11.3l42.9 42.9c.9.9 1.4 2.2 1.4 3.5zm-220.8 37.2c1 0 2.1-.2 3.1-.6 3-1.2 4.9-4.2 4.9-7.4v-64.8c0-4.4-3.6-8-8-8s-8 3.6-8 8v45.5l-124-124c-1.4-1.4-1.4-3.8 0-5.3L164.6 63.1c3.1-3.1 3.1-8.2 0-11.3-3.1-3.1-8.2-3.1-11.3 0L27.5 177.6c-3.7 3.7-5.8 8.7-5.8 13.9 0 5.3 2 10.2 5.8 13.9L165.1 343c1.6 1.7 3.7 2.5 5.7 2.5zM126 188l38.3-38.3c3.1-3.1 3.1-8.2 0-11.3-3.1-3.1-8.2-3.1-11.3 0l-38.3 38.3c-8.2 8.2-8.2 21.5 0 29.6l42.9 42.9c1.6 1.6 3.6 2.3 5.7 2.3s4.1-.8 5.7-2.3c3.1-3.1 3.1-8.2 0-11.3l-43-42.8c-1.9-2-1.9-5.1 0-7.1zM353.9 56.1c-4.2-1.4-8.7.9-10.1 5.2L220.9 441.2h-49.8L290.6 71.7h27.9c4.4 0 8-3.6 8-8s-3.6-8-8-8h-33.7c-3.5 0-6.5 2.2-7.6 5.5L152.5 446.8c-.8 2.4-.4 5.1 1.1 7.2s3.9 3.3 6.5 3.3h66.6c3.5 0 6.5-2.2 7.6-5.5L359 66.2c1.4-4.2-.9-8.7-5.1-10.1zM360.1 111.1c0-4.4 3.6-8 8-8h57.4c4.4 0 8 3.6 8 8s-3.6 8-8 8h-57.4c-4.4 0-8-3.6-8-8zM113.3 354.3c0-4.4-3.6-8-8-8H18.4c-4.4 0-8 3.6-8 8s3.6 8 8 8h86.8c4.5 0 8.1-3.5 8.1-8zm20.7 22.9H76.6c-4.4 0-8 3.6-8 8s3.6 8 8 8H134c4.4 0 8-3.6 8-8s-3.6-8-8-8zm348-246.4H354.8c-4.4 0-8 3.6-8 8s3.6 8 8 8H482c4.4 0 8-3.6 8-8s-3.6-8-8-8zM21.3 52c0-14.6 11.8-26.4 26.4-26.4S74.1 37.4 74.1 52 62.2 78.4 47.7 78.4 21.3 66.5 21.3 52zm16 0c0 5.7 4.7 10.4 10.4 10.4S58.1 57.7 58.1 52s-4.7-10.4-10.4-10.4S37.3 46.3 37.3 52zM312 439.8h-3.9v-3.9c0-4.4-3.6-8-8-8s-8 3.6-8 8v3.9h-3.9c-4.4 0-8 3.6-8 8s3.6 8 8 8h3.9v3.9c0 4.4 3.6 8 8 8s8-3.6 8-8v-3.9h3.9c4.4 0 8-3.6 8-8s-3.6-8-8-8z"/></svg>