<?xml version="1.0" standalone="no"?><svg xmlns:xlink="http://www.w3.org/1999/xlink" xmlns="http://www.w3.org/2000/svg" viewBox="0 0 1000 1000" preserveAspectRatio="xMaxYMax slice"><g transform="scale(1.5384615384615385)"><rect x="0" y="0" width="650" height="650" fill="#ffffff"/><rect x="0" y="0" width="92.86" height="92.86" fill="#617ceb"/><rect x="0" y="0" width="92.86" height="92.86" fill="#c4cef7"/><rect x="92.86" y="0" width="92.86" height="92.86" fill="#6e86ec"/><rect x="92.86" y="0" width="92.86" height="92.86" fill="#2e51e4"/><rect x="185.71" y="0" width="92.86" height="92.86" fill="#4363e7"/><polygon points="185.71,0 278.57,0 278.57,92.86" fill="#ffdbe4"/><rect x="278.57" y="0" width="92.86" height="92.86" fill="#ff4d77"/><rect x="278.57" y="0" width="92.86" height="92.86" fill="#7189ed"/><rect x="371.43" y="0" width="92.86" height="92.86" fill="#ff99b1"/><path d="M 371.43 92.86 A 92.86 92.86 0 0 1  464.29 0 L 371.43 92.86 A 92.86 92.86 0 0 0 464.29 0" fill="#4464e7"/><rect x="464.29" y="0" width="92.86" height="92.86" fill="#d1d9f9"/><polygon points="464.29,0 557.15,0 464.29,92.86" fill="#ffd5df"/><rect x="557.14" y="0" width="92.86" height="92.86" fill="#94a6f1"/><polygon points="557.14,0 650,0 650,92.86" fill="#ff7c9b"/><rect x="0" y="92.86" width="92.86" height="92.86" fill="#5471e9"/><rect x="0" y="92.86" width="92.86" height="92.86" fill="#ffbdcd"/><rect x="92.86" y="92.86" width="92.86" height="92.86" fill="#3355e4"/><rect x="92.86" y="92.86" width="92.86" height="92.86" fill="#4766e7"/><rect x="185.71" y="92.86" width="92.86" height="92.86" fill="#6f87ec"/><path d="M 185.71 185.72 A 92.86 92.86 0 0 0 278.57 92.86 L 185.71 92.86" fill="#d0d8f9"/><rect x="278.57" y="92.86" width="92.86" height="92.86" fill="#fffefe"/><rect x="278.57" y="92.86" width="92.86" height="92.86" fill="#647eeb"/><rect x="371.43" y="92.86" width="92.86" height="92.86" fill="#8196ef"/><rect x="371.43" y="92.86" width="92.86" height="92.86" fill="#bbc6f6"/><rect x="464.29" y="92.86" width="92.86" height="92.86" fill="#2247e2"/><rect x="464.29" y="92.86" width="92.86" height="92.86" fill="#6982ec"/><rect x="557.14" y="92.86" width="92.86" height="92.86" fill="#ff9db4"/><rect x="557.14" y="92.86" width="92.86" height="92.86" fill="#fffcfd"/><rect x="0" y="185.71" width="92.86" height="92.86" fill="#ffa5ba"/><rect x="0" y="185.71" width="92.86" height="92.86" fill="#fff7f9"/><rect x="92.86" y="185.71" width="92.86" height="92.86" fill="#ff6e91"/><path d="M 92.86 278.57 A 92.86 92.86 0 0 0 185.72 185.71 L 92.86 185.71" fill="#5370e9"/><rect x="185.71" y="185.71" width="92.86" height="92.86" fill="#ff92ac"/><polygon points="278.57,185.71 278.57,278.57 185.71,278.57" fill="#ff82a0"/><rect x="278.57" y="185.71" width="92.86" height="92.86" fill="#c2cdf7"/><rect x="278.57" y="185.71" width="92.86" height="92.86" fill="#ff4974"/><rect x="371.43" y="185.71" width="92.86" height="92.86" fill="#ff6589"/><polygon points="371.43,185.71 464.29,278.57 371.43,278.57" fill="#ff95ae"/><rect x="464.29" y="185.71" width="92.86" height="92.86" fill="#ffbbcb"/><path d="M 464.29 185.71 A 92.86 92.86 0 0 0 557.15 278.57 L 557.15 185.71" fill="#fff0f3"/><rect x="557.14" y="185.71" width="92.86" height="92.86" fill="#bdc8f6"/><rect x="557.14" y="185.71" width="92.86" height="92.86" fill="#dfe4fb"/><rect x="0" y="278.57" width="92.86" height="92.86" fill="#ff3565"/><rect x="0" y="278.57" width="92.86" height="92.86" fill="#c2ccf7"/><rect x="92.86" y="278.57" width="92.86" height="92.86" fill="#d2d9f9"/><path d="M 92.86 278.57 A 92.86 92.86 0 0 0 185.72 371.43 L 185.72 278.57" fill="#2f52e4"/><rect x="185.71" y="278.57" width="92.86" height="92.86" fill="#ff7c9b"/><polygon points="185.71,278.57 278.57,278.57 185.71,371.43" fill="#ff5d83"/><rect x="278.57" y="278.57" width="92.86" height="92.86" fill="#ffb5c6"/><rect x="278.57" y="278.57" width="92.86" height="92.86" fill="#a1b1f3"/><rect x="371.43" y="278.57" width="92.86" height="92.86" fill="#899df0"/><rect x="371.43" y="278.57" width="92.86" height="92.86" fill="#ff96af"/><rect x="464.29" y="278.57" width="92.86" height="92.86" fill="#91a4f1"/><rect x="464.29" y="278.57" width="92.86" height="92.86" fill="#ff3767"/><rect x="557.14" y="278.57" width="92.86" height="92.86" fill="#ff3a69"/><path d="M 557.14 278.57 A 92.86 92.86 0 0 0 650 371.43 L 650 278.57" fill="#ced6f9"/><rect x="0" y="371.43" width="92.86" height="92.86" fill="#617ceb"/><polygon points="0,371.43 92.86,464.29 0,464.29" fill="#ff7394"/><rect x="92.86" y="371.43" width="92.86" height="92.86" fill="#ffcbd7"/><polygon points="92.86,371.43 185.72,464.29 92.86,464.29" fill="#4565e7"/><rect x="185.71" y="371.43" width="92.86" height="92.86" fill="#ff567e"/><path d="M 185.71 371.43 A 92.86 92.86 0 0 1 278.57 464.29 L 185.71 464.29" fill="#3b5ce6"/><rect x="278.57" y="371.43" width="92.86" height="92.86" fill="#294de3"/><polygon points="371.43,371.43 371.43,464.29 278.57,464.29" fill="#7990ee"/><rect x="371.43" y="371.43" width="92.86" height="92.86" fill="#2b4fe4"/><rect x="371.43" y="371.43" width="92.86" height="92.86" fill="#ffccd8"/><rect x="464.29" y="371.43" width="92.86" height="92.86" fill="#758ced"/><path d="M 464.29 464.29 A 92.86 92.86 0 0 1  557.15 371.43 L 464.29 464.29 A 92.86 92.86 0 0 0 557.15 371.43" fill="#5370e9"/><rect x="557.14" y="371.43" width="92.86" height="92.86" fill="#2e52e4"/><polygon points="557.14,371.43 650,371.43 650,464.29" fill="#ffe3ea"/><rect x="0" y="464.29" width="92.86" height="92.86" fill="#ff3968"/><rect x="0" y="464.29" width="92.86" height="92.86" fill="#c6cff8"/><rect x="92.86" y="464.29" width="92.86" height="92.86" fill="#a5b4f3"/><path d="M 92.86 464.29 A 92.86 92.86 0 0 0 185.72 557.15 L 185.72 464.29" fill="#ff6f91"/><rect x="185.71" y="464.29" width="92.86" height="92.86" fill="#ffbbcb"/><path d="M 185.71 464.29 A 92.86 92.86 0 0 0 278.57 557.15 L 278.57 464.29" fill="#9cadf2"/><rect x="278.57" y="464.29" width="92.86" height="92.86" fill="#ffa9bd"/><path d="M 278.57 464.29 A 92.86 92.86 0 0 1 371.43 557.15 L 278.57 557.15" fill="#fff8fa"/><rect x="371.43" y="464.29" width="92.86" height="92.86" fill="#ffa2b8"/><path d="M 371.43 557.15 A 92.86 92.86 0 0 1  464.29 464.29 L 371.43 557.15 A 92.86 92.86 0 0 0 464.29 464.29" fill="#788fed"/><rect x="464.29" y="464.29" width="92.86" height="92.86" fill="#ff4974"/><polygon points="464.29,464.29 557.15,464.29 464.29,557.15" fill="#e2e7fb"/><rect x="557.14" y="464.29" width="92.86" height="92.86" fill="#ff5980"/><polygon points="557.14,464.29 650,464.29 557.14,557.15" fill="#1d43e2"/><rect x="0" y="557.14" width="92.86" height="92.86" fill="#ffe0e7"/><polygon points="0,557.14 92.86,557.14 92.86,650" fill="#2146e2"/><rect x="92.86" y="557.14" width="92.86" height="92.86" fill="#ffecf0"/><polygon points="92.86,557.14 185.72,557.14 92.86,650" fill="#edf0fd"/><rect x="185.71" y="557.14" width="92.86" height="92.86" fill="#eff2fd"/><rect x="185.71" y="557.14" width="92.86" height="92.86" fill="#ff547d"/><rect x="278.57" y="557.14" width="92.86" height="92.86" fill="#ff4571"/><polygon points="278.57,557.14 371.43,557.14 278.57,650" fill="#ffb8c9"/><rect x="371.43" y="557.14" width="92.86" height="92.86" fill="#ffecf1"/><rect x="371.43" y="557.14" width="92.86" height="92.86" fill="#8da0f0"/><rect x="464.29" y="557.14" width="92.86" height="92.86" fill="#fcfcff"/><path d="M 464.29 650 A 92.86 92.86 0 0 1  557.15 557.14 L 464.29 650 A 92.86 92.86 0 0 0 557.15 557.14" fill="#ff4b76"/><rect x="557.14" y="557.14" width="92.86" height="92.86" fill="#4061e6"/><path d="M 557.14 650 A 92.86 92.86 0 0 0 650 557.14 L 557.14 557.14" fill="#9faff3"/></g></svg>