<svg xmlns="http://www.w3.org/2000/svg" width="41.047" height="41.047"><path d="M19.719 31.029a1.315 1.315 0 1 1-2.633 0c0-.729.589-1.315 1.316-1.315a1.314 1.314 0 0 1 1.317 1.315zm-5.517-1.735a1.316 1.316 0 1 0-.002 2.632 1.316 1.316 0 0 0 .002-2.632zm-3.859-.737c-.629-.023-1.161.547-1.188 1.273-.026.729.461 1.336 1.091 1.357.629.021 1.16-.547 1.188-1.273.028-.726-.462-1.333-1.091-1.357zm12.214 1.045a1.316 1.316 0 1 0 0 2.633 1.316 1.316 0 0 0 0-2.633zm4-.444c-.631-.022-1.162.548-1.188 1.273-.026.727.463 1.336 1.092 1.357s1.16-.549 1.188-1.273c.023-.725-.463-1.333-1.092-1.357zm3.347-.603c-.539-.021-.994.553-1.021 1.279-.027.729.387 1.332.926 1.354.537.021.996-.555 1.023-1.281.023-.725-.391-1.333-.928-1.352zm2.793-.502c-.392-.016-.726.479-.744 1.1-.023.621.271 1.138.66 1.15.391.016.727-.479.746-1.1.024-.62-.273-1.137-.662-1.15zm3.588-2.289c0 8.57-6.926 15.283-15.763 15.283-8.838 0-15.761-6.713-15.761-15.283 0-4.43 1.822-10.874 4.535-16.035C11.205 6.096 15.202 0 20.521 0c5.32 0 9.316 6.096 11.229 9.729 2.711 5.161 4.535 11.606 4.535 16.035zM9.524 11.327l.588.65 2.896-1.834 2.198 2.61 2.806-2.544 2.788 2.656 2.94-2.722 3.057 2.562 2.344-2.628 2.312 1.879.219-.307a39.775 39.775 0 0 0-.736-1.492l-.094-.176-2.561-2.257-2.078 2.748-2.83-2.655-2.636 3.049-2.896-2.854-2.634 2.393-2.135-2.676-2.631 2.413-.193-.241-.137.256c-.201.383-.396.774-.587 1.17zM5.269 25.766c0-.506.073-1.041.073-1.602 0-.217.008-.436.022-.654-.023.217-.057.443-.074.654-.047.561-.074 1.096-.074 1.602s.026 1.002.074 1.492l.009.1.002-.897c-.015-.231-.032-.46-.032-.695zm27.981 7.492c-10.684 5.033-20.564 2.332-25.504-.092a14.095 14.095 0 0 0 2.511 3.051 27.378 27.378 0 0 0 10.294 2.01 29.67 29.67 0 0 0 9.911-1.711 14.368 14.368 0 0 0 2.788-3.258zm2.557-6.697c.016-.264.021-.527.021-.795s-.01-.543-.021-.826c-.096-1.998-.521-4.373-1.227-6.846l-.687-.676a43.382 43.382 0 0 0-1.233-3.5l-1.414 1.778-2.963-2.617-2.08 2.748-2.832-2.654-2.635 3.049-2.896-2.854-2.634 2.393-2.135-2.676-2.631 2.413-1.793-2.228a43.391 43.391 0 0 0-1.655 4.669l-.554.233a39.123 39.123 0 0 0-.473 1.87c.153-.613.321-1.238.5-1.87l.526-.233 1.104-.466 2.017 2.229 2.896-1.834 2.198 2.611 2.806-2.544 2.788 2.656 2.941-2.723 3.055 2.563 2.346-2.629 2.312 1.878 1.969-2.735.477.471.014.039.617.637c.703 2.474 1.176 4.849 1.176 6.847 0 .282.021.559.021.826 0 .266-.021.53-.021.795v.229c0 1.562-.397 3.037-.938 4.408-.188.1-.356.203-.601.315.351-.797.625-1.633.826-2.5a.469.469 0 0 1-.178.033c-.389-.017-.686-.528-.662-1.149.021-.621.357-1.113.746-1.101.15.006.287.09.396.228.037-.416.047-.836.047-1.263 0-.026-.016-.055-.021-.082-8.354 2.609-22.798 2.82-29.627-.323-.121-.058-.232-.111-.349-.17v.006c.114.057.232.108.349.164-.003.135-.01.272-.01.405 0 1.093.123 2.147.351 3.164.051-.694.493-1.235 1.016-1.217.538.021.953.625.926 1.353-.027.729-.485 1.299-1.022 1.278-.256-.011-.48-.151-.646-.375.166.543.364 1.069.591 1.584 2.38 1.104 7.262 2.922 13.652 2.922 6.372 0 11.23-1.834 13.618-2.957.237-.112.452-.219.643-.313.539-1.371.88-2.85.982-4.408-.001-.078.007-.152.011-.23zM6.298 23.465c.39 0 .705-.504.705-1.127 0-.621-.315-1.125-.705-1.125a.39.39 0 0 0-.118.02c-.133.679-.242 1.34-.323 1.979.122.155.273.253.441.253zm2.772.986c.539 0 .976-.588.976-1.315s-.438-1.313-.976-1.313-.975.59-.975 1.313c.001.727.437 1.318.975 1.315zm3.326.725c.63 0 1.141-.59 1.141-1.316 0-.726-.512-1.315-1.141-1.315s-1.139.59-1.139 1.315c0 .726.509 1.316 1.139 1.316zm3.931.594a1.316 1.316 0 1 0 0-2.631 1.316 1.316 0 0 0 0 2.631zm4.214.263a1.314 1.314 0 1 0 0-2.63 1.315 1.315 0 1 0 0 2.63zm4.147-.263a1.316 1.316 0 1 0 0-2.634 1.316 1.316 0 0 0 0 2.634zm3.933-.594c.629 0 1.139-.59 1.139-1.316 0-.726-.51-1.315-1.139-1.315-.633 0-1.144.59-1.144 1.315.001.726.511 1.316 1.144 1.316zm3.322-.725c.539 0 .977-.588.977-1.315s-.438-1.313-.977-1.313-.976.59-.976 1.313c.002.727.437 1.318.976 1.315zm2.909-3.213s.004 0 .004-.002a.431.431 0 0 0-.133-.022c-.389 0-.697.504-.697 1.125 0 .623.332 1.127.723 1.127.181 0 .496-.108.496-.282v-.007c0-.002-.028-.002-.028-.004-.08-.623-.218-1.267-.347-1.926a.038.038 0 0 1-.018-.009zm.851 4.295c0 .043-.197.084-.344.123.145-.039.344-.08.344-.123z"/></svg>